<?xml version="1.0" encoding="UTF-8"?>
<svg version="1.1" xmlns="http://www.w3.org/2000/svg" width="512" height="512">
<path d="M0 0 C0.6928315 -0.00453111 1.385663 -0.00906223 2.09948939 -0.01373065 C4.41467645 -0.02636302 6.72962793 -0.02475505 9.04484558 -0.02310181 C10.70746157 -0.02908782 12.37007477 -0.03589354 14.03268433 -0.04345703 C18.54519306 -0.06111758 23.05762592 -0.06581246 27.57016587 -0.0670886 C30.39095933 -0.06851082 33.21173353 -0.07278176 36.0325222 -0.07808304 C45.87778827 -0.09658402 55.7230002 -0.10475363 65.56828308 -0.10317993 C74.73815161 -0.10197875 83.90778467 -0.12307626 93.07759362 -0.15466726 C100.95632177 -0.18084078 108.83497307 -0.19154676 116.71374434 -0.19026911 C121.41670776 -0.18975976 126.11946194 -0.1954279 130.82238197 -0.21662521 C135.24740694 -0.23602555 139.67202347 -0.23611988 144.09706306 -0.22159195 C145.71755827 -0.21950492 147.33807916 -0.22419846 148.95853043 -0.23631287 C164.04026913 -0.34172545 164.04026913 -0.34172545 170.998703 4.26742554 C172.545578 5.28836304 172.545578 5.28836304 174.123703 6.32992554 C181.76249859 13.13388008 184.57996291 23.25596354 185.16667175 33.07992554 C184.98375725 46.11674078 178.37339102 58.03807549 173.10340881 69.67602539 C171.69771906 72.79187292 170.31199905 75.91645068 168.92698669 79.04153442 C167.88958305 81.35698186 166.82161902 83.65660795 165.75212097 85.95736694 C161.23710806 95.74849691 161.23710806 95.74849691 162.37809753 106.23568726 C163.25148844 109.09499455 162.74739499 111.422396 161.998703 114.26742554 C162.968078 114.4749646 163.937453 114.68250366 164.936203 114.89633179 C185.15854621 119.45132671 203.4039074 128.53645573 218.998703 142.26742554 C219.84046082 142.97640991 220.68221863 143.68539429 221.54948425 144.41586304 C247.02655344 166.36655717 261.04662704 198.17279443 263.998703 231.26742554 C264.29500534 236.47740827 264.43851151 241.69112101 264.59440613 246.90682983 C265.77608744 281.89802487 276.73460643 313.59492909 294.623703 343.39242554 C310.10240513 369.27462902 316.01969892 396.42877208 309.10417175 426.25961304 C305.06544031 442.22882846 297.32627352 457.26020079 285.998703 469.26742554 C285.1221405 470.21101929 284.245578 471.15461304 283.342453 472.12680054 C267.35669131 488.94394627 244.50410591 500.94411419 221.09162605 502.45503306 C217.963409 502.52874191 214.84065287 502.54372729 211.71157837 502.53485107 C209.9279347 502.54164774 209.9279347 502.54164774 208.10825783 502.54858172 C204.83855932 502.55898396 201.56900063 502.56056328 198.29929101 502.55819297 C194.76057732 502.55778222 191.22189555 502.56884852 187.68319702 502.57830811 C180.7610806 502.59486452 173.83899825 502.60041525 166.91686367 502.60153286 C161.28417113 502.60248605 155.65148975 502.60660979 150.01880074 502.61293411 C134.01640834 502.6305332 118.01404268 502.63977527 102.01164054 502.63827316 C101.15038629 502.63819325 100.28913204 502.63811334 99.40177917 502.63803101 C98.53946177 502.63794924 97.67714436 502.63786748 96.78869612 502.63778324 C82.82734551 502.6369711 68.86610297 502.6560943 54.9047836 502.68430774 C40.53736311 502.7131105 26.16999519 502.72684393 11.80254513 502.72512019 C3.74926215 502.72445875 -4.30390757 502.72984206 -12.35716438 502.75147629 C-19.21632525 502.76978588 -26.07532155 502.77395606 -32.93449641 502.76045744 C-36.4264525 502.75397615 -39.91809378 502.75363219 -43.41001892 502.77116394 C-75.76666211 502.90375979 -102.27468806 496.30878945 -126.001297 473.26742554 C-126.91782043 472.4437146 -126.91782043 472.4437146 -127.8528595 471.60336304 C-145.90566484 454.86948411 -154.97997023 428.54501737 -156.188797 404.54476929 C-156.60624544 379.31522908 -148.23835356 358.97786295 -135.36213684 337.90292358 C-120.18753528 312.88736754 -111.58384005 284.92953419 -109.11360168 255.79403687 C-109.02240051 254.84939575 -108.93119934 253.90475464 -108.8372345 252.93148804 C-108.77068665 252.10084839 -108.70413879 251.27020874 -108.63557434 250.41439819 C-107.79365251 247.56456732 -106.52703193 246.74002718 -104.001297 245.26742554 C-103.341297 245.26742554 -102.681297 245.26742554 -102.001297 245.26742554 C-102.001297 242.62742554 -102.001297 239.98742554 -102.001297 237.26742554 C-102.640672 236.95805054 -103.280047 236.64867554 -103.938797 236.32992554 C-106.001297 235.26742554 -106.001297 235.26742554 -107.001297 234.26742554 C-107.12765123 232.18698841 -107.17711405 230.10166342 -107.188797 228.01742554 C-107.20297668 226.87789429 -107.21715637 225.73836304 -107.23176575 224.56430054 C-106.92639689 220.19597313 -106.11320829 217.37933683 -103.001297 214.26742554 C-101.681297 214.26742554 -100.361297 214.26742554 -99.001297 214.26742554 C-98.341297 211.29742554 -97.681297 208.32742554 -97.001297 205.26742554 C-97.991297 204.93742554 -98.981297 204.60742554 -100.001297 204.26742554 C-101.29428945 198.54131612 -100.54298102 194.878122 -98.063797 189.70492554 C-97.7445929 189.01310181 -97.42538879 188.32127808 -97.09651184 187.60848999 C-91.6897717 176.11096123 -85.43406705 165.84484995 -77.001297 156.26742554 C-76.29231262 155.42566772 -75.58332825 154.58390991 -74.8528595 153.71664429 C-57.44376861 133.51078609 -33.69697816 120.56271609 -8.001297 114.26742554 C-7.341297 114.26742554 -6.681297 114.26742554 -6.001297 114.26742554 C-6.207547 113.44242554 -6.413797 112.61742554 -6.626297 111.76742554 C-7.001297 108.26742554 -7.001297 108.26742554 -5.80183411 104.66830444 C-4.37450897 99.23295936 -6.3681241 95.32175907 -8.56770325 90.35336304 C-8.95820358 89.42126007 -9.34870392 88.4891571 -9.7510376 87.52880859 C-11.00086491 84.55721531 -12.28102308 81.59992537 -13.563797 78.64242554 C-15.21788929 74.75734381 -16.8609555 70.86761945 -18.50520325 66.97836304 C-19.10075768 65.57705894 -19.10075768 65.57705894 -19.70834351 64.14744568 C-32.48158066 33.96813469 -32.48158066 33.96813469 -25.845047 17.37680054 C-22.17743775 9.91932839 -17.30946342 4.83867705 -9.7984972 1.2003994 C-6.40367884 0.06809689 -3.57990061 0.00968701 0 0 Z " fill="#6FAE97" transform="translate(178.0012969970703,4.732574462890625)"/>
<path d="M0 0 C0.6928315 -0.00453111 1.385663 -0.00906223 2.09948939 -0.01373065 C4.41467645 -0.02636302 6.72962793 -0.02475505 9.04484558 -0.02310181 C10.70746157 -0.02908782 12.37007477 -0.03589354 14.03268433 -0.04345703 C18.54519306 -0.06111758 23.05762592 -0.06581246 27.57016587 -0.0670886 C30.39095933 -0.06851082 33.21173353 -0.07278176 36.0325222 -0.07808304 C45.87778827 -0.09658402 55.7230002 -0.10475363 65.56828308 -0.10317993 C74.73815161 -0.10197875 83.90778467 -0.12307626 93.07759362 -0.15466726 C100.95632177 -0.18084078 108.83497307 -0.19154676 116.71374434 -0.19026911 C121.41670776 -0.18975976 126.11946194 -0.1954279 130.82238197 -0.21662521 C135.24740694 -0.23602555 139.67202347 -0.23611988 144.09706306 -0.22159195 C145.71755827 -0.21950492 147.33807916 -0.22419846 148.95853043 -0.23631287 C164.04026913 -0.34172545 164.04026913 -0.34172545 170.998703 4.26742554 C172.545578 5.28836304 172.545578 5.28836304 174.123703 6.32992554 C181.76249859 13.13388008 184.57996291 23.25596354 185.16667175 33.07992554 C184.98375725 46.11674078 178.37339102 58.03807549 173.10340881 69.67602539 C171.69771906 72.79187292 170.31199905 75.91645068 168.92698669 79.04153442 C167.88958305 81.35698186 166.82161902 83.65660795 165.75212097 85.95736694 C161.23710806 95.74849691 161.23710806 95.74849691 162.37809753 106.23568726 C163.25148844 109.09499455 162.74739499 111.422396 161.998703 114.26742554 C162.968078 114.4749646 163.937453 114.68250366 164.936203 114.89633179 C185.15854621 119.45132671 203.4039074 128.53645573 218.998703 142.26742554 C219.84046082 142.97640991 220.68221863 143.68539429 221.54948425 144.41586304 C247.02655344 166.36655717 261.04662704 198.17279443 263.998703 231.26742554 C264.29500534 236.47740827 264.43851151 241.69112101 264.59440613 246.90682983 C265.77608744 281.89802487 276.73460643 313.59492909 294.623703 343.39242554 C310.10240513 369.27462902 316.01969892 396.42877208 309.10417175 426.25961304 C305.06544031 442.22882846 297.32627352 457.26020079 285.998703 469.26742554 C285.1221405 470.21101929 284.245578 471.15461304 283.342453 472.12680054 C267.35669131 488.94394627 244.50410591 500.94411419 221.09162605 502.45503306 C217.963409 502.52874191 214.84065287 502.54372729 211.71157837 502.53485107 C209.9279347 502.54164774 209.9279347 502.54164774 208.10825783 502.54858172 C204.83855932 502.55898396 201.56900063 502.56056328 198.29929101 502.55819297 C194.76057732 502.55778222 191.22189555 502.56884852 187.68319702 502.57830811 C180.7610806 502.59486452 173.83899825 502.60041525 166.91686367 502.60153286 C161.28417113 502.60248605 155.65148975 502.60660979 150.01880074 502.61293411 C134.01640834 502.6305332 118.01404268 502.63977527 102.01164054 502.63827316 C101.15038629 502.63819325 100.28913204 502.63811334 99.40177917 502.63803101 C98.53946177 502.63794924 97.67714436 502.63786748 96.78869612 502.63778324 C82.82734551 502.6369711 68.86610297 502.6560943 54.9047836 502.68430774 C40.53736311 502.7131105 26.16999519 502.72684393 11.80254513 502.72512019 C3.74926215 502.72445875 -4.30390757 502.72984206 -12.35716438 502.75147629 C-19.21632525 502.76978588 -26.07532155 502.77395606 -32.93449641 502.76045744 C-36.4264525 502.75397615 -39.91809378 502.75363219 -43.41001892 502.77116394 C-75.76666211 502.90375979 -102.27468806 496.30878945 -126.001297 473.26742554 C-126.91782043 472.4437146 -126.91782043 472.4437146 -127.8528595 471.60336304 C-145.90566484 454.86948411 -154.97997023 428.54501737 -156.188797 404.54476929 C-156.60624544 379.31522908 -148.23835356 358.97786295 -135.36213684 337.90292358 C-120.18753528 312.88736754 -111.58384005 284.92953419 -109.11360168 255.79403687 C-109.02240051 254.84939575 -108.93119934 253.90475464 -108.8372345 252.93148804 C-108.77068665 252.10084839 -108.70413879 251.27020874 -108.63557434 250.41439819 C-108.001297 248.26742554 -108.001297 248.26742554 -106.17951965 246.43295288 C-104.001297 245.26742554 -104.001297 245.26742554 -100.313797 245.95492554 C-97.001297 247.26742554 -97.001297 247.26742554 -96.001297 249.26742554 C-94.75839364 263.99104991 -98.38862634 279.08501053 -102.001297 293.26742554 C-102.24106262 294.2793396 -102.48082825 295.29125366 -102.7278595 296.33383179 C-107.69894733 315.63744858 -116.63423162 333.36339359 -127.001297 350.26742554 C-140.42127522 372.33275337 -146.08187873 395.39847804 -140.313797 421.01742554 C-138.57928125 428.06520892 -136.2522084 434.76560273 -133.001297 441.26742554 C-132.51016418 442.24969116 -132.01903137 443.23195679 -131.51301575 444.24398804 C-127.10247655 452.39138024 -121.49658225 458.76290091 -115.001297 465.26742554 C-113.90494934 466.38117554 -113.90494934 466.38117554 -112.78645325 467.51742554 C-91.17091122 488.12665742 -62.88281002 489.72823849 -34.66633606 489.63973999 C-31.93618189 489.6405137 -29.20604033 489.64578012 -26.47589111 489.65080261 C-19.86906585 489.66022406 -13.26235087 489.65375035 -6.65553388 489.64153967 C1.05500636 489.62782679 8.76552121 489.62956557 16.47607055 489.631673 C30.24031035 489.63485295 44.00449815 489.62325092 57.76872253 489.60360718 C71.09588706 489.58459246 84.42299073 489.57752476 97.75016785 489.58309937 C112.30237277 489.58916847 126.85455105 489.58896052 141.40675378 489.57761353 C142.96066046 489.57640637 144.51456714 489.57520039 146.06847382 489.57399559 C146.83281653 489.57339205 147.59715925 489.57278851 148.38466386 489.57216669 C153.74783208 489.56830197 159.11099031 489.56867547 164.47415924 489.57058144 C171.0148892 489.57271186 177.55556613 489.56741508 184.0962812 489.55296788 C187.42758991 489.54576625 190.75875777 489.54269349 194.09008217 489.54621124 C197.71276233 489.54945529 201.33521382 489.54029548 204.95787048 489.52812195 C206.51203788 489.53379093 206.51203788 489.53379093 208.09760261 489.53957444 C230.42079852 489.40770213 250.78066319 482.5957244 267.998703 468.26742554 C269.07378113 467.16140991 269.07378113 467.16140991 270.170578 466.03305054 C271.998703 464.26742554 271.998703 464.26742554 273.998703 464.26742554 C274.25393738 463.69637085 274.50917175 463.12531616 274.7721405 462.53695679 C276.13326064 460.01845106 277.74888327 458.11731722 279.623703 455.95492554 C287.69102964 445.98077624 292.94146625 434.70555193 295.998703 422.26742554 C296.22299988 421.42566772 296.44729675 420.58390991 296.6783905 419.71664429 C302.44973592 394.29900659 295.33517001 369.81289212 281.998703 348.26742554 C281.359328 347.28129272 280.719953 346.29515991 280.061203 345.27914429 C269.35783964 328.64145647 262.22992581 310.28348081 256.998703 291.26742554 C256.78487976 290.50494507 256.57105652 289.7424646 256.35075378 288.95687866 C252.44137758 274.54484363 252.01595638 259.7542995 251.20768738 244.92367554 C249.15896451 209.08059883 238.86473061 178.73935462 212.248703 153.57992554 C189.59319748 134.13038777 162.44088205 124.93357299 132.70402527 124.99276733 C131.33715033 124.98840499 129.97027782 124.98321687 128.60340881 124.97727966 C124.93596405 124.9640437 121.26862328 124.9632934 117.60115933 124.96584296 C114.52005551 124.96692298 111.43897186 124.96200343 108.35787243 124.95723754 C101.08017452 124.94619622 93.80252825 124.94567485 86.52482605 124.95175171 C79.05847748 124.95779088 71.59231738 124.94546953 64.12600094 124.92418164 C57.67541937 124.90647742 51.22489733 124.90057798 44.77429241 124.90381938 C40.93926439 124.90561795 37.10437094 124.90314051 33.26936531 124.88910484 C29.66008353 124.87638569 26.05109255 124.87860107 22.44181442 124.89151573 C20.51371222 124.89494915 18.58560052 124.88380924 16.65753174 124.87194824 C-9.09199646 125.02413712 -33.30371099 134.93353728 -53.001297 151.26742554 C-54.29100403 152.32896851 -54.29100403 152.32896851 -55.60676575 153.41195679 C-69.5902979 165.4442984 -79.01930349 180.26297684 -86.45832825 196.95492554 C-89.20089313 202.84276103 -89.20089313 202.84276103 -91.001297 205.26742554 C-93.91553631 206.14458272 -95.89922762 205.66133911 -99.001297 205.26742554 C-101.2592767 201.88045598 -101.15605161 200.43554682 -100.5403595 196.51498413 C-99.56686852 192.45612636 -97.8313925 188.81570247 -96.001297 185.07992554 C-95.59830383 184.24767456 -95.19531067 183.41542358 -94.78010559 182.55795288 C-80.15145241 153.09012136 -53.82561161 129.37888854 -22.68952942 118.55722046 C-17.15296008 116.71662835 -11.80176987 115.0712706 -6.001297 114.26742554 C-6.207547 113.44242554 -6.413797 112.61742554 -6.626297 111.76742554 C-7.001297 108.26742554 -7.001297 108.26742554 -5.80183411 104.66830444 C-4.37450897 99.23295936 -6.3681241 95.32175907 -8.56770325 90.35336304 C-8.95820358 89.42126007 -9.34870392 88.4891571 -9.7510376 87.52880859 C-11.00086491 84.55721531 -12.28102308 81.59992537 -13.563797 78.64242554 C-15.21788929 74.75734381 -16.8609555 70.86761945 -18.50520325 66.97836304 C-19.10075768 65.57705894 -19.10075768 65.57705894 -19.70834351 64.14744568 C-32.48158066 33.96813469 -32.48158066 33.96813469 -25.845047 17.37680054 C-22.17743775 9.91932839 -17.30946342 4.83867705 -9.7984972 1.2003994 C-6.40367884 0.06809689 -3.57990061 0.00968701 0 0 Z " fill="#010101" transform="translate(178.0012969970703,4.732574462890625)"/>
<path d="M0 0 C1.09183594 0.41765625 2.18367187 0.8353125 3.30859375 1.265625 C5.95855602 2.39326852 8.46785843 3.62975883 11 5 C11.9796875 5.52335938 12.959375 6.04671875 13.96875 6.5859375 C39.06039261 20.58910169 56.39241665 43.33586924 64.5 70.75 C71.84167496 98.34925957 66.44250465 126.41286739 53.3125 151.18359375 C38.31975264 176.01533157 14.80046516 192.12595261 -12.7734375 200.08984375 C-30.61213162 204.1474922 -50.61999446 203.84710163 -68 198 C-68.63405762 197.79101074 -69.26811523 197.58202148 -69.92138672 197.36669922 C-96.54164076 188.32163962 -118.17702938 169.27825199 -130.9453125 144.28515625 C-142.60532877 120.16920759 -145.21856126 91.60690616 -137 66 C-136.79632813 65.35708008 -136.59265625 64.71416016 -136.3828125 64.05175781 C-131.13765765 48.14631139 -121.82845407 34.69151104 -110 23 C-109.22269531 22.21238281 -108.44539063 21.42476562 -107.64453125 20.61328125 C-79.64452779 -6.26109393 -35.87767947 -13.83113005 0 0 Z " fill="#FEE9B6" transform="translate(293,214)"/>
<path d="M0 0 C0.66647248 -0.00438225 1.33294495 -0.00876451 2.01961356 -0.01327956 C4.26347016 -0.0266846 6.50728746 -0.03285026 8.75117493 -0.03897095 C10.35585712 -0.04687068 11.96053753 -0.05513955 13.56521606 -0.06375122 C18.84503987 -0.08998992 24.12487167 -0.10528236 29.40473938 -0.11953735 C31.22167783 -0.12489659 33.03861623 -0.1302741 34.85555458 -0.13566971 C42.41400687 -0.15730263 49.972457 -0.17603895 57.53093243 -0.1872921 C68.36517615 -0.20352771 79.19906102 -0.23669122 90.03316945 -0.29369295 C97.64939209 -0.33239825 105.26551878 -0.35192558 112.88183719 -0.35721266 C117.43119094 -0.36086581 121.9801621 -0.37288259 126.52940941 -0.4053154 C130.81162213 -0.43540592 135.09322099 -0.44170454 139.37551689 -0.42993164 C140.94484496 -0.42971097 142.51420158 -0.43801044 144.08343124 -0.45558548 C157.41014431 -0.59668248 157.41014431 -0.59668248 161.95803833 2.54730225 C167.1287893 7.68673393 169.82795818 13.25044514 170.14302063 20.59140015 C169.54449429 30.16165347 164.85407928 39.09393278 161.06880188 47.7828064 C160.65510849 48.7391246 160.2414151 49.69544281 159.81518555 50.68074036 C158.51077896 53.69392929 157.20191048 56.70515642 155.89302063 59.71640015 C155.00406825 61.76901306 154.11539396 63.82174644 153.227005 65.87460327 C151.61118244 69.60455078 149.99513767 73.3343979 148.37471008 77.06234741 C148.05146255 77.80638321 147.72821503 78.55041901 147.39517212 79.31700134 C146.82159815 80.61031185 146.21323528 81.88847084 145.58052063 83.15390015 C99.05052063 83.15390015 52.52052063 83.15390015 4.58052063 83.15390015 C-20.94784443 22.52403312 -20.94784443 22.52403312 -17.45463562 12.34140015 C-13.65244995 3.9838802 -9.23204507 0.04292496 0 0 Z " fill="#74B39C" transform="translate(180.4194793701172,16.846099853515625)"/>
<path d="M0 0 C24.48692297 19.32491561 41.35716735 47.08776006 45.3125 78.25 C46.97586027 112.42449274 40.36862107 142.96283083 17.3125 169.25 C16.64992188 170.06855469 15.98734375 170.88710938 15.3046875 171.73046875 C-1.35352978 191.65065633 -26.49571709 203.61784756 -51.6875 208.25 C-52.55632812 208.43433594 -53.42515625 208.61867188 -54.3203125 208.80859375 C-67.35882538 210.51781876 -81.87940066 210.1746841 -94.6875 207.25 C-95.83476562 207.00507813 -96.98203125 206.76015625 -98.1640625 206.5078125 C-128.12250405 199.38085693 -153.87548065 180.31319235 -170.296875 154.34765625 C-185.15298437 129.68147466 -191.27646546 98.77215441 -185.4375 70.375 C-184.88629745 68.32442537 -184.30478126 66.2816605 -183.6875 64.25 C-183.43226563 63.24324219 -183.17703125 62.23648438 -182.9140625 61.19921875 C-174.68166837 30.87530825 -154.47035729 6.90485924 -127.73876953 -8.90234375 C-88.1643498 -31.49906602 -36.18604612 -27.42926124 0 0 Z M-150.32177734 24.64160156 C-170.13547734 47.9760055 -176.79148853 76.2552291 -174.6875 106.25 C-171.40371702 132.01028236 -158.13118627 156.54086183 -138.23828125 173.2890625 C-113.16410857 192.56507274 -85.79032498 200.17250623 -54.125 196.859375 C-27.18136449 192.55281031 -2.45745098 177.01457413 13.89672852 155.33447266 C21.42120263 144.78984331 26.54858796 132.58251481 30.3125 120.25 C30.6321875 119.24839844 30.951875 118.24679687 31.28125 117.21484375 C38.37541489 90.71025547 32.38812971 62.89191632 19.28125 39.4375 C10.83366737 25.76046146 -0.07681771 13.89343972 -13.6875 5.25 C-14.76644531 4.50169922 -14.76644531 4.50169922 -15.8671875 3.73828125 C-21.28780215 0.16517713 -27.00569671 -2.18502397 -33.0625 -4.4375 C-33.82876709 -4.72302734 -34.59503418 -5.00855469 -35.38452148 -5.30273438 C-46.64782337 -9.34045494 -56.94114387 -11.26288004 -68.9375 -11.125 C-70.85502075 -11.10977295 -70.85502075 -11.10977295 -72.8112793 -11.09423828 C-103.35284271 -10.5933978 -129.73988216 2.01689287 -150.32177734 24.64160156 Z " fill="#030403" transform="translate(326.6875,218.75)"/>
<path d="M0 0 C2.875 0.9375 2.875 0.9375 4.875 3.9375 C5.11550903 6.72795105 5.11550903 6.72795105 5.10205078 10.15307617 C5.10182419 12.07472847 5.10182419 12.07472847 5.10159302 14.03520203 C5.09137973 15.43362584 5.08094774 16.83204808 5.0703125 18.23046875 C5.06658178 19.66107485 5.06373509 21.09168352 5.06173706 22.52229309 C5.05410522 26.28542144 5.03446069 30.04839511 5.0123291 33.8114624 C4.99186094 37.65228178 4.98273327 41.49312617 4.97265625 45.33398438 C4.95121429 52.86856006 4.91708387 60.40300834 4.875 67.9375 C5.65860901 68.24344086 6.44221802 68.54938171 7.24957275 68.86459351 C9.68722493 69.86076388 11.67104431 70.96436096 13.859375 72.4140625 C14.61774658 72.91228516 15.37611816 73.41050781 16.1574707 73.92382812 C16.97175537 74.46458984 17.78604004 75.00535156 18.625 75.5625 C20.40429743 76.73276045 22.18427936 77.90198064 23.96484375 79.0703125 C24.91343262 79.69325195 25.86202148 80.31619141 26.83935547 80.95800781 C33.31852651 85.18296509 39.85425166 89.32073963 46.38378906 93.46728516 C49.2232431 95.27715225 52.05215212 97.101866 54.875 98.9375 C55.62177002 99.41550049 56.36854004 99.89350098 57.13793945 100.38598633 C59.0703125 101.67578125 59.0703125 101.67578125 61.875 103.9375 C62.4375 107.625 62.4375 107.625 61.875 110.9375 C59.875 112.9375 59.875 112.9375 56.8671875 113.4375 C51.41816111 113.25783092 47.36886883 109.89868351 43 106.9375 C41.04714925 105.65322871 39.0940127 104.36939194 37.140625 103.0859375 C35.61211914 102.07031738 35.61211914 102.07031738 34.05273438 101.03417969 C28.66125381 97.47686292 23.20070963 94.02806957 17.75 90.5625 C13.78284074 88.03430234 9.82373078 85.49439066 5.875 82.9375 C5.32509399 82.58200073 4.77518799 82.22650146 4.20861816 81.86022949 C2.53393533 80.7743014 0.86456349 79.68019686 -0.8046875 78.5859375 C-1.79968262 77.93544434 -2.79467773 77.28495117 -3.81982422 76.61474609 C-6.125 74.9375 -6.125 74.9375 -7.125 72.9375 C-7.23739975 70.77376111 -7.28436463 68.60652596 -7.30200195 66.43994141 C-7.30857315 65.77307816 -7.31514435 65.1062149 -7.32191467 64.41914368 C-7.34164891 62.20911551 -7.35330976 59.99915526 -7.36328125 57.7890625 C-7.36735678 57.03464245 -7.3714323 56.2802224 -7.37563133 55.50294113 C-7.39649151 51.5107526 -7.41079404 47.51859844 -7.42016602 43.52636719 C-7.4312372 39.40128506 -7.46564473 35.27674137 -7.50533772 31.15184975 C-7.53146996 27.98111969 -7.53985473 24.81051868 -7.54344749 21.6396904 C-7.54832143 20.11902602 -7.55995845 18.59836771 -7.57848549 17.07780838 C-7.60280916 14.94938587 -7.60192555 12.82236631 -7.5949707 10.69384766 C-7.60083694 9.48298492 -7.60670319 8.27212219 -7.61274719 7.02456665 C-7.125 3.9375 -7.125 3.9375 -5.29093933 1.51132202 C-3.125 -0.0625 -3.125 -0.0625 0 0 Z " fill="#030202" transform="translate(257.125,241.0625)"/>
<path d="M0 0 C47.52 0 95.04 0 144 0 C144 1.32 144 2.64 144 4 C96.48 4 48.96 4 0 4 C0 2.68 0 1.36 0 0 Z " fill="#52606F" transform="translate(184,113)"/>
<path d="M0 0 C6.46153846 0.46153846 6.46153846 0.46153846 9 3 C9.63003589 8.67032299 9.68994152 14.87630187 7 20 C4.47982145 22.05593513 3.09514932 23.09386994 -0.1875 22.8125 C-2 22 -2 22 -4 20 C-4.265625 17.13671875 -4.265625 17.13671875 -4.25 13.6875 C-4.25515625 12.55699219 -4.2603125 11.42648438 -4.265625 10.26171875 C-3.91248948 5.92542227 -3.09315927 3.09315927 0 0 Z " fill="#010202" transform="translate(75,219)"/>
<path d="M0 0 C1.34173403 0.92543709 2.67320159 1.86577405 4 2.8125 C5.11375 3.59560547 5.11375 3.59560547 6.25 4.39453125 C6.8275 4.92433594 7.405 5.45414062 8 6 C8 6.99 8 7.98 8 9 C6.84775972 8.07038578 5.70340824 7.1309875 4.5625 6.1875 C3.60537109 5.40439453 3.60537109 5.40439453 2.62890625 4.60546875 C1 3 1 3 0 0 Z " fill="#6DA993" transform="translate(174,395)"/>
</svg>
