<?xml version="1.0" encoding="UTF-8"?>
<svg version="1.1" xmlns="http://www.w3.org/2000/svg" width="512" height="512">
<path d="M0 0 C0.83843445 0.00054382 1.6768689 0.00108765 2.54071045 0.00164795 C15.91737676 0.04147747 28.57989854 0.93703431 41.5625 4.375 C42.39265625 4.58398926 43.2228125 4.79297852 44.078125 5.00830078 C68.45958799 11.2485717 91.70982211 22.57349346 110.5625 39.375 C111.39910156 40.10332031 112.23570312 40.83164062 113.09765625 41.58203125 C145.95476268 70.57957031 168.18936806 111.18742674 171.5625 155.375 C171.75295728 160.29134234 171.80816032 165.20542066 171.8125 170.125 C171.81317474 170.81307739 171.81384949 171.50115479 171.81454468 172.21008301 C171.74885362 214.5249443 155.94334083 258.03138607 125.69140625 288.3203125 C123.62829972 290.3553897 121.55626142 292.38109934 119.48413086 294.40698242 C109.4923286 304.26290666 101.46893997 315.16295052 94.5625 327.375 C94.03011719 328.31472656 93.49773437 329.25445312 92.94921875 330.22265625 C82.61188116 349.64189249 79.42914904 370.74383175 77.5625 392.375 C78.17657715 392.35405273 78.7906543 392.33310547 79.42333984 392.31152344 C82.26122017 392.22731966 85.09883652 392.17601577 87.9375 392.125 C88.90300781 392.09148437 89.86851562 392.05796875 90.86328125 392.0234375 C99.51835131 391.90726206 106.82100236 393.7028715 113.4375 399.5 C118.86987587 405.5231307 121.30896616 412.78549965 120.953125 420.85546875 C119.70580701 428.90066977 116.1782534 435.62388328 109.6875 440.5625 C102.54405025 444.70570085 96.25579002 444.62354272 88.1875 444.5 C87.06988281 444.49097656 85.95226562 444.48195313 84.80078125 444.47265625 C82.05446538 444.44918346 79.30859528 444.41634728 76.5625 444.375 C76.39379395 444.9637793 76.22508789 445.55255859 76.05126953 446.15917969 C73.27227263 455.23686495 68.02893266 461.7079622 59.6875 466.4375 C57.31278057 467.63337125 55.09392749 468.53119084 52.5625 469.375 C51.68783053 471.69646864 50.97684278 473.93155525 50.3125 476.3125 C47.47943959 485.59496505 42.82745743 492.83653831 35.5625 499.375 C35.06363281 499.85453125 34.56476563 500.3340625 34.05078125 500.828125 C22.87727723 511.14212871 10.09944102 512.9803436 -4.5078125 512.6875 C-16.51921096 512.14007584 -29.11856346 506.15006622 -37.4375 497.375 C-44.13682154 489.65013619 -47.48421881 482.00802018 -50.4375 472.375 C-51.07510057 469.2991578 -51.07510057 469.2991578 -53.22265625 468.453125 C-53.97417969 468.17984375 -54.72570312 467.9065625 -55.5 467.625 C-64.03626268 464.03434983 -70.2356755 457.60417877 -74.4375 449.375 C-74.79678004 447.71373339 -75.13343801 446.04725452 -75.4375 444.375 C-76.1173999 444.39594727 -76.7972998 444.41689453 -77.49780273 444.43847656 C-80.62338047 444.52239895 -83.74872016 444.5738991 -86.875 444.625 C-87.94427734 444.65851563 -89.01355469 444.69203125 -90.11523438 444.7265625 C-98.50921038 444.82924111 -104.10317573 443.03469898 -111.1875 438.6875 C-116.578207 433.14705113 -119.51197888 426.4418404 -119.75 418.75 C-119.64084221 411.33818583 -117.29726613 405.02684472 -112.3125 399.5 C-104.76977728 392.89134762 -96.53058299 391.78765667 -86.8125 392.125 C-85.80832031 392.14304687 -84.80414063 392.16109375 -83.76953125 392.1796875 C-81.32447348 392.22626003 -78.88153188 392.29162972 -76.4375 392.375 C-80.53159303 348.82873782 -94.34913579 317.43004516 -126 287 C-156.15049697 257.02278175 -170.56191058 213.11380066 -170.8125 171.375 C-170.52724157 123.86164279 -151.96952753 81.70218755 -119.125 47.75 C-97.92831637 27.03505918 -71.37457187 12.68139747 -42.8125 5.125 C-41.88300537 4.87862793 -40.95351074 4.63225586 -39.99584961 4.37841797 C-26.62917874 0.98724189 -13.72483647 -0.03353056 0 0 Z " fill="#FDDB00" transform="translate(255.4375,-0.37499999999999994)"/>
<path d="M0 0 C0.83843445 0.00054382 1.6768689 0.00108765 2.54071045 0.00164795 C15.91737676 0.04147747 28.57989854 0.93703431 41.5625 4.375 C42.39265625 4.58398926 43.2228125 4.79297852 44.078125 5.00830078 C68.45958799 11.2485717 91.70982211 22.57349346 110.5625 39.375 C111.39910156 40.10332031 112.23570312 40.83164062 113.09765625 41.58203125 C145.95476268 70.57957031 168.18936806 111.18742674 171.5625 155.375 C171.75295728 160.29134234 171.80816032 165.20542066 171.8125 170.125 C171.81317474 170.81307739 171.81384949 171.50115479 171.81454468 172.21008301 C171.74885362 214.5249443 155.94334083 258.03138607 125.69140625 288.3203125 C123.62829972 290.3553897 121.55626142 292.38109934 119.48413086 294.40698242 C109.4923286 304.26290666 101.46893997 315.16295052 94.5625 327.375 C94.03011719 328.31472656 93.49773437 329.25445312 92.94921875 330.22265625 C82.61188116 349.64189249 79.42914904 370.74383175 77.5625 392.375 C78.17657715 392.35405273 78.7906543 392.33310547 79.42333984 392.31152344 C82.26122017 392.22731966 85.09883652 392.17601577 87.9375 392.125 C88.90300781 392.09148437 89.86851562 392.05796875 90.86328125 392.0234375 C99.51835131 391.90726206 106.82100236 393.7028715 113.4375 399.5 C118.86987587 405.5231307 121.30896616 412.78549965 120.953125 420.85546875 C119.70580701 428.90066977 116.1782534 435.62388328 109.6875 440.5625 C102.54405025 444.70570085 96.25579002 444.62354272 88.1875 444.5 C87.06988281 444.49097656 85.95226562 444.48195313 84.80078125 444.47265625 C82.05446538 444.44918346 79.30859528 444.41634728 76.5625 444.375 C76.39379395 444.9637793 76.22508789 445.55255859 76.05126953 446.15917969 C73.27227263 455.23686495 68.02893266 461.7079622 59.6875 466.4375 C57.31278057 467.63337125 55.09392749 468.53119084 52.5625 469.375 C51.68783053 471.69646864 50.97684278 473.93155525 50.3125 476.3125 C47.47943959 485.59496505 42.82745743 492.83653831 35.5625 499.375 C35.06363281 499.85453125 34.56476563 500.3340625 34.05078125 500.828125 C22.87727723 511.14212871 10.09944102 512.9803436 -4.5078125 512.6875 C-16.51921096 512.14007584 -29.11856346 506.15006622 -37.4375 497.375 C-44.13682154 489.65013619 -47.48421881 482.00802018 -50.4375 472.375 C-51.07510057 469.2991578 -51.07510057 469.2991578 -53.22265625 468.453125 C-53.97417969 468.17984375 -54.72570312 467.9065625 -55.5 467.625 C-64.03626268 464.03434983 -70.2356755 457.60417877 -74.4375 449.375 C-74.79678004 447.71373339 -75.13343801 446.04725452 -75.4375 444.375 C-76.1173999 444.39594727 -76.7972998 444.41689453 -77.49780273 444.43847656 C-80.62338047 444.52239895 -83.74872016 444.5738991 -86.875 444.625 C-87.94427734 444.65851563 -89.01355469 444.69203125 -90.11523438 444.7265625 C-98.50921038 444.82924111 -104.10317573 443.03469898 -111.1875 438.6875 C-116.578207 433.14705113 -119.51197888 426.4418404 -119.75 418.75 C-119.64084221 411.33818583 -117.29726613 405.02684472 -112.3125 399.5 C-104.76977728 392.89134762 -96.53058299 391.78765667 -86.8125 392.125 C-85.80832031 392.14304687 -84.80414063 392.16109375 -83.76953125 392.1796875 C-81.32447348 392.22626003 -78.88153188 392.29162972 -76.4375 392.375 C-80.53159303 348.82873782 -94.34913579 317.43004516 -126 287 C-156.15049697 257.02278175 -170.56191058 213.11380066 -170.8125 171.375 C-170.52724157 123.86164279 -151.96952753 81.70218755 -119.125 47.75 C-97.92831637 27.03505918 -71.37457187 12.68139747 -42.8125 5.125 C-41.88300537 4.87862793 -40.95351074 4.63225586 -39.99584961 4.37841797 C-26.62917874 0.98724189 -13.72483647 -0.03353056 0 0 Z M-33.4375 20.375 C-34.20513672 20.55772461 -34.97277344 20.74044922 -35.76367188 20.92871094 C-54.46935385 25.54824067 -73.04957554 33.68307623 -88.4375 45.375 C-89.28957031 46.01953125 -90.14164063 46.6640625 -91.01953125 47.328125 C-97.07959901 52.0570258 -102.80687997 57.14588428 -108.4375 62.375 C-109.34435547 63.20064453 -109.34435547 63.20064453 -110.26953125 64.04296875 C-129.61755752 82.3941412 -142.654462 109.03390547 -149.1875 134.5625 C-149.39850342 135.38202148 -149.60950684 136.20154297 -149.8269043 137.04589844 C-159.31755625 175.88085177 -150.7775409 218.60244807 -130.4375 252.375 C-123.08393947 264.17354015 -113.86471997 274.07696205 -103.9375 283.75 C-85.16604504 302.38775514 -71.47669422 325.86908699 -64.92089844 351.48828125 C-64.47016381 353.24751217 -63.99010475 354.99915754 -63.5078125 356.75 C-61.79778029 363.13412024 -61.11513066 368.59869343 -60.4375 375.375 C-20.1775 375.375 20.0825 375.375 61.5625 375.375 C62.2225 370.425 62.8825 365.475 63.5625 360.375 C64.37743263 356.82512319 65.21378015 353.41301784 66.25 349.9375 C66.51127686 349.04844971 66.77255371 348.15939941 67.04174805 347.2434082 C75.63847164 318.91566564 92.00894369 296.33398015 113.125 276 C132.45537759 256.78087638 143.80268405 231.43073399 150.5625 205.375 C150.74474121 204.6752002 150.92698242 203.97540039 151.11474609 203.25439453 C153.74658089 192.52541228 153.84218213 181.67428016 153.875 170.6875 C153.87876648 169.99234283 153.88253296 169.29718567 153.88641357 168.58096313 C153.92315289 155.19580237 152.79863674 142.09322504 149 129.1875 C148.7431543 128.30876221 148.48630859 127.43002441 148.22167969 126.5246582 C140.64165701 101.6901102 127.10979923 81.26727938 109.5625 62.375 C108.67884766 61.39273438 108.67884766 61.39273438 107.77734375 60.390625 C83.16066611 34.2049723 44.01683026 18.63051715 8.54589844 17.25830078 C-5.69905709 16.83908613 -19.54866175 16.99309903 -33.4375 20.375 Z " fill="#010100" transform="translate(255.4375,-0.37499999999999994)"/>
<path d="M0 0 C0.65484375 0.50917969 1.3096875 1.01835938 1.984375 1.54296875 C19.38404961 15.63670519 30.60350892 38.98075526 33 61 C34.63266235 87.30018547 27.85646613 113.18103907 10.25488281 133.39526367 C-4.75909191 150.10378917 -25.3722533 162.47836748 -48 165 C-77.52560202 166.40857583 -102.88733702 160.81443827 -125.25 140.75 C-139.18588746 127.65301629 -147.97107917 111.42173102 -153 93 C-153.22429687 92.2059375 -153.44859375 91.411875 -153.6796875 90.59375 C-158.30180682 70.58567186 -154.82589187 49.27478787 -146 31 C-145.58234375 30.113125 -145.1646875 29.22625 -144.734375 28.3125 C-133.6301749 6.35936877 -113.92301951 -10.10347568 -90.7578125 -18.14453125 C-59.21401351 -27.92936408 -25.33717024 -21.16122922 0 0 Z " fill="#F4F4F4" transform="translate(317,99)"/>
<path d="M0 0 C17.10399496 14.64399026 29.08000085 34.4685309 35.1875 56.0625 C35.39076904 56.77881592 35.59403809 57.49513184 35.8034668 58.2331543 C40.17024075 74.73384843 40.17263669 94.45209802 35.3125 110.75 C35.10850586 111.44544922 34.90451172 112.14089844 34.69433594 112.85742188 C25.93398026 142.26263321 8.35152763 166.54801096 -18.6875 181.75 C-26.68257953 185.99732279 -34.86485237 189.62454398 -43.6875 191.75 C-44.64140625 192.02714844 -45.5953125 192.30429687 -46.578125 192.58984375 C-75.42783478 199.86936354 -105.2376697 194.33305139 -130.6875 179.75 C-134.97439667 177.09168774 -138.87025062 174.04433851 -142.6875 170.75 C-144.00427734 169.63818359 -144.00427734 169.63818359 -145.34765625 168.50390625 C-167.34912365 149.35632452 -181.07948126 122.82140188 -183.6875 93.75 C-184.97357996 72.69868475 -181.32537131 52.61613308 -171.6875 33.75 C-171.213125 32.79222656 -170.73875 31.83445313 -170.25 30.84765625 C-166.78775788 24.13956214 -162.59622319 18.46625805 -157.6875 12.75 C-157.02105469 11.93789062 -156.35460937 11.12578125 -155.66796875 10.2890625 C-116.16897274 -36.17172316 -45.59998844 -37.55649808 0 0 Z M-132.6875 11.75 C-133.51765625 12.40355469 -134.3478125 13.05710937 -135.203125 13.73046875 C-152.42547772 28.16366686 -163.84161485 50.54145702 -166.6875 72.75 C-168.13583256 99.53706663 -161.90778149 125.508006 -143.94213867 146.14599609 C-127.89385488 164.00042691 -106.04165 176.58054647 -81.77197266 177.90966797 C-53.48647679 178.96343277 -28.97552816 172.29003758 -7.6875 152.75 C9.56413458 135.70073064 21.36564192 111.73634906 21.6418457 87.16601562 C21.63628662 86.30685547 21.63072754 85.44769531 21.625 84.5625 C21.62008545 83.65048828 21.6151709 82.73847656 21.61010742 81.79882812 C21.23151869 59.69701209 12.65907672 39.43344179 -1.6875 22.75 C-2.17863281 22.12609375 -2.66976562 21.5021875 -3.17578125 20.859375 C-15.37483554 5.60196626 -38.30611352 -6.46156019 -57.50683594 -9.04345703 C-85.26161585 -11.67226847 -110.6880402 -5.94956538 -132.6875 11.75 Z " fill="#030301" transform="translate(328.6875,86.25)"/>
<path d="M0 0 C39.6 0 79.2 0 120 0 C120 49.57727273 120 49.57727273 115.28125 54.9609375 C114.6934375 55.42757812 114.105625 55.89421875 113.5 56.375 C112.9121875 56.85710937 112.324375 57.33921875 111.71875 57.8359375 C107.51890568 60.68037751 102.8930707 60.16195112 98.03393555 60.17700195 C97.11654602 60.18357315 96.19915649 60.19014435 95.25396729 60.19691467 C92.21488362 60.21664229 89.17584934 60.22830855 86.13671875 60.23828125 C85.09886545 60.24235678 84.06101215 60.2464323 82.99170876 60.25063133 C77.49943872 60.27148888 72.00719365 60.28579249 66.51489258 60.29516602 C60.84199745 60.30623518 55.16949405 60.34064205 49.49673748 60.38033772 C45.13439707 60.40647894 40.7721504 60.4148556 36.40973854 60.41844749 C34.3185645 60.42331918 32.2273948 60.43494966 30.13629723 60.45348549 C27.20863119 60.47782552 24.28198423 60.47692126 21.35424805 60.4699707 C20.49221268 60.48278076 19.63017731 60.49559082 18.74201965 60.50878906 C12.16053965 60.45189496 8.80195441 58.33496201 3.75 54.125 C-6.71555974 41.41682032 0 2.65235679 0 0 Z " fill="#5F7C8A" transform="translate(196,392)"/>
<path d="M0 0 C13.68120344 3.97998646 26.5580221 10.5547306 38 19 C38.54720703 19.40057617 39.09441406 19.80115234 39.65820312 20.21386719 C68.07406659 41.18137862 88.21194561 70.35416245 97.9375 104.375 C98.12489746 105.02662109 98.31229492 105.67824219 98.50537109 106.34960938 C101.74608709 118.68191308 102.41509489 131.37339517 102.375 144.0625 C102.37318726 145.13707962 102.37318726 145.13707962 102.37133789 146.23336792 C102.18878318 186.39150724 86.97972362 223.31391589 59 252 C57.1692942 253.79435136 55.33597195 255.58603729 53.5 257.375 C34.09984681 276.66476825 20.86262358 300.63625546 14 327 C13.53787109 328.67449219 13.53787109 328.67449219 13.06640625 330.3828125 C11.40448144 336.60111489 10.4720337 342.58034171 10 349 C4.39 349 -1.22 349 -7 349 C-7 317.4259217 10.68752588 287.233173 32 265 C33.44675867 263.57904086 34.89372321 262.15827349 36.34667969 260.74365234 C66.4969472 231.27730464 84.5672145 189.99352466 85.24194336 147.77416992 C85.38451104 103.10728295 68.46202101 62.05065703 37.7734375 29.7734375 C27.33463073 19.33463073 14.61296757 10.30041936 1.6953125 3.15625 C1.13585937 2.7746875 0.57640625 2.393125 0 2 C0 1.34 0 0.68 0 0 Z " fill="#FBBF07" transform="translate(307,26)"/>
<path d="M0 0 C13.13582736 2.80790413 25.95066665 10.23268037 36 19 C36.64710938 19.5053125 37.29421875 20.010625 37.9609375 20.53125 C55.38701866 34.58231939 66.60547051 57.99877858 69 80 C70.63266235 106.30018547 63.85646613 132.18103907 46.25488281 152.39526367 C34.16338846 165.85146335 17.47661443 178.57546688 -1 181 C1.58544425 178.13024573 4.57779399 176.27350647 7.8125 174.1875 C20.65542442 165.51433256 30.43113639 154.44880725 38 141 C38.56203125 140.01515625 39.1240625 139.0303125 39.703125 138.015625 C51.91778959 115.19024168 54.80376497 87.79519687 47.59863281 62.95458984 C39.85014596 37.65508505 24.95869991 18.38568567 3 4 C2.01 3.34 1.02 2.68 0 2 C0 1.34 0 0.68 0 0 Z " fill="#CCD5D9" transform="translate(281,80)"/>
<path d="M0 0 C3.84611296 0.94465932 5.1519251 1.81542416 7.5625 4.875 C8.94738785 7.64477571 8.44344297 9.55192241 8.14892578 12.63354492 C3.80545583 49.95258745 3.80545583 49.95258745 15.73175049 83.94758606 C24.73722068 94.53537835 35.51648406 103.4808894 46.84812927 111.48449707 C48.5625 112.875 48.5625 112.875 50.5625 115.875 C50.78314752 119.93491438 50.48651195 123.7022156 47.9375 126.9375 C44.25479592 128.39119898 42.54081582 128.64499661 38.5625 127.875 C29.22323652 121.03225466 21.18462001 111.6832641 13.01928711 103.51708984 C10.61135976 101.11137228 8.19550823 98.71380014 5.77929688 96.31640625 C4.23909502 94.77913492 2.69936436 93.24139133 1.16015625 91.703125 C0.44142838 90.99158264 -0.2772995 90.28004028 -1.01780701 89.54693604 C-1.68602982 88.8756366 -2.35425262 88.20433716 -3.04272461 87.51269531 C-3.62767197 86.92917297 -4.21261932 86.34565063 -4.81529236 85.7444458 C-8.81510431 81.13502869 -9.81402797 77.89571166 -9.82568359 71.77734375 C-9.83094055 71.082388 -9.83619751 70.38743225 -9.84161377 69.67141724 C-9.8547673 67.3848797 -9.84609272 65.09904405 -9.8359375 62.8125 C-9.83795958 61.21736518 -9.84087214 59.62223127 -9.84463501 58.02709961 C-9.84905205 54.68822404 -9.84264745 51.34958967 -9.82861328 48.01074219 C-9.81152158 43.73679911 -9.82136611 39.46342125 -9.83933067 35.1894989 C-9.85018538 31.89688886 -9.84671447 28.60441222 -9.8389473 25.3117981 C-9.83694995 23.73617485 -9.83938821 22.16053939 -9.84638596 20.58493042 C-9.85402847 18.38051395 -9.84235828 16.17700532 -9.82568359 13.97265625 C-9.82329681 12.71976807 -9.82091003 11.46687988 -9.81845093 10.17602539 C-9.40384633 6.58338335 -8.61615618 4.73238507 -6.4375 1.875 C-3.4375 -0.125 -3.4375 -0.125 0 0 Z " fill="#0A0A0A" transform="translate(256.4375,94.125)"/>
<path d="M0 0 C21.78 0 43.56 0 66 0 C62.62112951 10.13661148 57.74420052 17.92489556 48 23 C39.48923833 26.98561232 29.74190645 27.6232085 20.8125 24.5625 C13.08556276 21.02046189 5.94438463 14.56007054 2 7 C1.34 4.69 0.68 2.38 0 0 Z " fill="#7B8A90" transform="translate(223,469)"/>
<path d="M0 0 C39.6 0 79.2 0 120 0 C120 49.57727273 120 49.57727273 115.28125 54.9609375 C114.6934375 55.42757812 114.105625 55.89421875 113.5 56.375 C112.9121875 56.85710937 112.324375 57.33921875 111.71875 57.8359375 C108.45635667 60.04546753 105.62653344 60.1120329 101.8125 60.0625 C100.224375 60.041875 98.63625 60.02125 97 60 C98.65 56.04 100.3 52.08 102 48 C102.33 32.49 102.66 16.98 103 1 C69.34 1 35.68 1 1 1 C1 15.85 1 30.7 1 46 C0.67 46 0.34 46 0 46 C0 30.82 0 15.64 0 0 Z " fill="#35454D" transform="translate(196,392)"/>
<path d="M0 0 C3.43250143 1.9401095 4.70166193 3.14227804 6 6.875 C6 10.77706544 5.01359327 12.67136326 3 16 C0.55151367 17.95043945 0.55151367 17.95043945 -2.33203125 19.61328125 C-3.37810547 20.22107422 -4.42417969 20.82886719 -5.50195312 21.45507812 C-7.14067383 22.37450195 -7.14067383 22.37450195 -8.8125 23.3125 C-9.89337891 23.94478516 -10.97425781 24.57707031 -12.08789062 25.22851562 C-21.32365375 30.51824368 -21.32365375 30.51824368 -27 31 C-30.17764131 29.83893875 -32.27876647 28.87802343 -34.4375 26.25 C-35.28441764 22.86232946 -34.84213994 20.36855977 -34 17 C-29.8064981 12.11517054 -24.21325129 9.39080804 -18.6875 6.25 C-17.66720703 5.64800781 -16.64691406 5.04601562 -15.59570312 4.42578125 C-6.05935717 -1.01123047 -6.05935717 -1.01123047 0 0 Z " fill="#000000" transform="translate(81,260)"/>
<path d="M0 0 C4.07625343 1.77980426 7.860163 3.99179864 11.6875 6.25 C12.71939453 6.83652344 13.75128906 7.42304688 14.81445312 8.02734375 C26.22264498 14.61611127 26.22264498 14.61611127 27.9375 19.875 C28.01606404 23.80320182 27.20625381 25.76416108 25 29 C21.0818916 31.4355809 18.38417198 30.98876214 14 30 C9.77802616 28.05997777 5.82129843 25.65753951 1.8125 23.3125 C0.72001953 22.69955078 -0.37246094 22.08660156 -1.49804688 21.45507812 C-2.54412109 20.84728516 -3.59019531 20.23949219 -4.66796875 19.61328125 C-5.61953857 19.06454346 -6.5711084 18.51580566 -7.55151367 17.95043945 C-10.50630042 15.5966862 -11.62716218 13.49400007 -13 10 C-13 6.07388673 -12.50000993 4.55883463 -9.875 1.625 C-6.35700973 -0.36342928 -3.89967427 -0.79402378 0 0 Z " fill="#000000" transform="translate(438,260)"/>
<path d="M0 0 C3.30290812 2.11724879 3.88526042 3.61275391 5 7.375 C5 11.68033252 3.88549674 13.9443105 1 17 C-1.83962341 19.00856649 -4.84851662 20.59710775 -7.9375 22.1875 C-9.53022336 23.03463858 -11.12267866 23.88228138 -12.71484375 24.73046875 C-13.46032471 25.12129639 -14.20580566 25.51212402 -14.97387695 25.91479492 C-16.64757319 26.81123784 -18.28636936 27.77251136 -19.9140625 28.75 C-23.51656447 30.90880268 -26.00482041 31.17913233 -30.125 30.4375 C-33 29 -33 29 -34.9375 26.25 C-36.17467502 22.46569993 -36.35471514 20.74538892 -35 17 C-30.09317722 12.35476874 -24.44965809 9.06334057 -18.625 5.6875 C-17.7175 5.13771484 -16.81 4.58792969 -15.875 4.02148438 C-10.27373147 0.77291005 -6.4925412 -0.84337601 0 0 Z " fill="#000000" transform="translate(461,51)"/>
<path d="M0 0 C5.24054474 0.13952714 9.01971597 2.40799317 13.4375 5.0390625 C14.19289063 5.46574219 14.94828125 5.89242187 15.7265625 6.33203125 C30.23927611 14.68556915 30.23927611 14.68556915 32.4375 20.4140625 C32.28899673 23.97814106 31.84947374 25.86966863 29.6875 28.7265625 C27.02210834 30.72560624 25.77788515 31.33814466 22.4375 31.4140625 C16.42663852 29.4406365 11.17463876 26.76766787 5.75 23.5390625 C5.01716797 23.11753906 4.28433594 22.69601563 3.52929688 22.26171875 C-6.60551698 16.28501157 -6.60551698 16.28501157 -8.5625 10.4140625 C-8.5625 4.75911531 -5.63192659 0.65458796 0 0 Z " fill="#000000" transform="translate(54.5625,50.5859375)"/>
<path d="M0 0 C0.73714737 -0.00619858 1.47429474 -0.01239716 2.23377991 -0.01878357 C3.78954755 -0.02587268 5.3453912 -0.02272341 6.90112305 -0.01000977 C9.274704 0.00384524 11.64433083 -0.03020427 14.01757812 -0.06835938 C15.53255304 -0.06931078 17.04753287 -0.06745057 18.5625 -0.0625 C19.26785385 -0.07575821 19.9732077 -0.08901642 20.69993591 -0.10267639 C24.61261293 -0.02920208 26.22527656 0.46641012 29.29492188 2.97460938 C31.31399058 5.52389974 32.01732651 6.45792738 31.91015625 9.62890625 C31.34765625 13.56640625 31.34765625 13.56640625 29.53515625 16.00390625 C24.32146795 19.72796932 18.14971022 18.75245387 12.00585938 18.75170898 C9.98676331 18.753891 7.96821789 18.77204748 5.94921875 18.79101562 C4.03109375 18.79391602 4.03109375 18.79391602 2.07421875 18.796875 C0.90455566 18.80098389 -0.26510742 18.80509277 -1.47021484 18.80932617 C-4.67233843 18.56487988 -6.82595233 18.07037201 -9.65234375 16.56640625 C-11.6926613 13.50592993 -11.96827899 12.63144631 -12.02734375 9.12890625 C-12.05570313 8.36707031 -12.0840625 7.60523438 -12.11328125 6.8203125 C-10.79510994 0.37467822 -5.65007526 -0.03961621 0 0 Z " fill="#000000" transform="translate(28.65234375,161.43359375)"/>
<path d="M0 0 C0.71353638 -0.00241196 1.42707275 -0.00482391 2.16223145 -0.00730896 C3.66501444 -0.0063331 5.16783454 0.0069986 6.67041016 0.03198242 C8.96251287 0.06631283 11.25075972 0.05262863 13.54296875 0.03320312 C15.00782881 0.04010207 16.47267897 0.04977492 17.9375 0.0625 C18.61784302 0.05754013 19.29818604 0.05258026 19.99914551 0.04747009 C24.71855904 0.16349282 27.16818394 1.27302562 30.46875 4.62890625 C31.33827921 7.69656208 31.09826229 10.51568182 30.46875 13.62890625 C28.27043636 16.661063 27.01911806 17.44545023 23.46875 18.62890625 C19.35679956 18.8555546 15.24470528 18.8571588 11.12695312 18.86914062 C9.10765274 18.87883947 7.08937388 18.90987381 5.0703125 18.94140625 C3.1521875 18.94914062 3.1521875 18.94914062 1.1953125 18.95703125 C-0.55918213 18.9710498 -0.55918213 18.9710498 -2.34912109 18.98535156 C-5.88475549 18.58930843 -7.7106416 17.76169851 -10.53125 15.62890625 C-13.03156654 11.87843143 -13.06728554 10.07034359 -12.53125 5.62890625 C-8.857298 0.82843265 -5.82016481 -0.11342067 0 0 Z " fill="#000000" transform="translate(464.53125,161.37109375)"/>
<path d="M0 0 C3.41751005 -0.10792137 6.83161597 -0.18727736 10.25 -0.25 C11.70212891 -0.30027344 11.70212891 -0.30027344 13.18359375 -0.3515625 C20.33025944 -0.4501372 20.33025944 -0.4501372 23.6328125 1.76953125 C25.26432989 4.43123533 25.56644892 6.80476176 25.7265625 9.90234375 C24.51588494 13.39768702 22.19704732 15.35950551 19 17 C15.67759499 17.57965516 12.48434543 17.47692579 9.125 17.3125 C8.24585938 17.28994141 7.36671875 17.26738281 6.4609375 17.24414062 C4.30654993 17.18559748 2.1530469 17.09592783 0 17 C0 11.39 0 5.78 0 0 Z " fill="#7C8B90" transform="translate(333,410)"/>
<path d="M0 0 C1.47533203 0.02707031 1.47533203 0.02707031 2.98046875 0.0546875 C5.40406341 0.10174759 7.82715625 0.17348914 10.25 0.25 C10.25 5.86 10.25 11.47 10.25 17.25 C7.20682614 17.38558695 4.16974438 17.48437239 1.125 17.5625 C0.2690625 17.60439453 -0.586875 17.64628906 -1.46875 17.68945312 C-5.782195 17.77240399 -8.83564137 17.68905307 -12.328125 14.984375 C-15.53894746 11.35925286 -15.53894746 11.35925286 -15.375 8.1875 C-14.75 4.25 -14.75 4.25 -13.3828125 2.01953125 C-9.18325154 -0.80302233 -4.92992133 -0.17067637 0 0 Z " fill="#7C8B90" transform="translate(168.75,409.75)"/>
</svg>
